<svg width="72" height="72" fill="none" xmlns="http://www.w3.org/2000/svg"><path d="M71.944 65.016c-1.38-4.244-3.502-8.276-5.306-12.308-.212-.531-1.061-.531-1.38-.213-1.803 1.91-3.82 3.82-4.987 6.155h-.106c-12.945.955-25.467-10.08-34.38-18.145-10.293-9.232-19.63-20.48-23.344-33.956-.213-1.698-.425-3.502-.425-5.305 0-.85-1.167-.85-1.273 0v.955c-.425 0-.743.318-.743.848.106 1.168.424 2.335.637 3.502C1.486 35.305 30.136 63 58.149 64.804c-.955 1.698-1.804 3.502-2.865 5.2-.53.742.319 1.485 1.061 1.379 5.306-.743 10.08-3.29 14.962-5.2.424-.105.849-.53.637-1.167zm-14.22 4.245c.637-1.38 1.062-2.759 1.805-4.138.212-.531-.107-.955-.425-1.062 0-.318-.212-.53-.53-.636-25.361-4.245-45.947-21.54-53.587-44.991C9.974 27.665 17.614 35.73 25.148 42.52c5.518 4.987 11.354 9.444 17.721 13.157 4.987 2.866 11.248 5.518 16.978 3.715-.319.849.955 1.273 1.38.636 1.379-1.804 2.758-3.501 4.244-5.093 1.485 3.29 3.077 6.579 4.244 9.974-3.926 1.486-7.852 3.396-11.99 4.351z" fill="url(#paint0_linear)"/><defs><linearGradient id="paint0_linear" x1="0" y1="36" x2="72" y2="36" gradientUnits="userSpaceOnUse"><stop stop-color="#33276C"/><stop offset=".536" stop-color="#9657B4"/><stop offset="1" stop-color="#903367"/></linearGradient></defs></svg>